<svg id="Layer_1" data-name="Layer 1" xmlns="http://www.w3.org/2000/svg" width="440" height="150" viewBox="0 0 440 150">
  <title>logo</title>
  <g>
    <path d="M367.55,71.2c0,4.21,2.62,8.23,11.1,8.23s11.1-4,11.1-8.23V40.85c0-4.21-2.63-8.23-11.1-8.23s-11.1,4-11.1,8.23ZM317.3,53.28C317.3,28.78,338,14,377.19,14,413.41,14,440,24.22,440,55.3v52.47c0,33.82-26.59,42.23-62.22,42.23-35.93,0-58.14-11-58.14-32.36v-4.39h50.25v9.88c0,6,4.67,8.22,9.35,8.22,7.88,0,10.51-2.92,10.51-8.59V92.23h-.58c-7.89,8.23-17.53,11.34-29.21,11.34-33.6,0-42.66-17-42.66-34.38Z" style="fill: #e1001a"/>
    <path d="M57.23,60c0-10.37,6.4-20.28,31.69-20.28,19.19,0,29.28,6.88,29.28,18.45v9.26H92.05V55.22c0-2.19,0-4.49-4.69-4.49-3,0-4,2-4,4.31V92.68c0,2.29,1,4.31,4,4.31,4.69,0,4.69-2.48,4.69-5.33V78.36H118.2V89.19C118.2,100.75,107,108,88.36,108c-26.3,0-31.13-9.91-31.13-20.28Z" style="fill: #003781"/>
    <polygon points="257.01 41.09 301.21 41.09 301.21 54.31 283.15 54.31 283.15 66.33 300.07 66.33 300.07 79 283.15 79 283.15 93.41 302.62 93.41 302.62 106.62 257.01 106.62 257.01 41.09" style="fill: #003781"/>
    <path d="M216.14,95.62H220c3.83,0,6.26-2.3,6.11-5.42V57.52c.15-3.12-2.28-5.42-6.11-5.42h-3.83ZM190,41.09h33c17.77,0,29.27,2.11,29.27,16.8V94.05c0,9.83-11.65,12.57-23.16,12.57H190Z" style="fill: #003781"/>
    <path d="M149.12,92.68c0,2.29,1,4.31,5,4.31s5-2,5-4.31V55c0-2.29-1-4.32-5-4.32s-5,2-5,4.32ZM123,60c0-10.37,4.83-20.28,31.12-20.28S185.21,49.63,185.21,60V87.71c0,10.38-4.82,20.29-31.12,20.29S123,98.09,123,87.71Z" style="fill: #003781"/>
    <path d="M25,43.58S7.4,58.2,2.7,70.76c-9.45,25.32,8.93,42.44,8.93,42.44S-.3,93.7,7.38,78C17.51,57.3,31.14,51.16,31.14,51.16Z" style="fill: #003781"/>
    <path d="M73.76,19S138-5.47,231.18,1.13c127.31,9,159.09,62.35,159.09,62.35S364,35.72,311.72,22.85c-30.9-7.61-58.6-12.32-96.57-13.29C128.63,7.34,80.58,27.37,80.58,27.37" style="fill: #003781"/>
    <path d="M80.2,36.29a26.83,26.83,0,1,1-26.83-27,26.9,26.9,0,0,1,26.83,27" style="fill: #e1001a"/>
  </g>
</svg>
