<svg id="Layer_1" data-name="Layer 1" xmlns="http://www.w3.org/2000/svg" width="440" height="150" viewBox="0 0 440 150">
  <title>logo-mono</title>
  <g>
    <path d="M377.19,14c-18.56,0-32.93,3.36-43,9.47-24-10.14-57.36-19.09-103-22.32C140-5.32,76.65,17.91,73.89,18.94A26.85,26.85,0,0,0,30.63,50.53l-5.62-7S7.4,58.2,2.7,70.76c-9.45,25.32,8.93,42.44,8.93,42.44S-.3,93.7,7.38,78C17.11,58.14,30,51.7,31,51.21a26.75,26.75,0,0,0,22.33,12A27.17,27.17,0,0,0,57.23,63V87.72c0,10.37,4.83,20.28,31.13,20.28,18.61,0,29.84-7.25,29.84-18.81V78.36H92.05v13.3c0,2.85,0,5.33-4.69,5.33-3,0-4-2-4-4.31V55c0-2.29,1-4.31,4-4.31,4.69,0,4.69,2.3,4.69,4.49V67.43H118.2V58.17c0-11.57-10.09-18.45-29.28-18.45a74.75,74.75,0,0,0-9,.51,26.45,26.45,0,0,0-4.13-18.79l4.83,5.93s48.05-20,134.57-17.81c38,1,65.67,5.69,96.57,13.29,5.9,1.45,11.42,3.12,16.65,4.89-7.29,6.51-11.07,15.14-11.07,25.54V69.19c0,17.37,9.06,34.38,42.66,34.38,11.68,0,21.32-3.11,29.21-11.34h.58v30.53c0,5.67-2.63,8.59-10.51,8.59-4.68,0-9.35-2.19-9.35-8.22v-9.88H319.64v4.39c0,21.39,22.21,32.36,58.14,32.36,35.63,0,62.22-8.41,62.22-42.23V55.3C440,24.22,413.41,14,377.19,14Zm-9.64,26.87c0-4.2,2.62-8.23,11.1-8.23s11.1,4,11.1,8.23V62.7c-1.72-2.53-8.14-11-22.2-21Zm22.2,30.35c0,4.21-2.63,8.23-11.1,8.23s-11.1-4-11.1-8.23V46.09c12.93,8,20.35,15,22.2,16.87Z" style="fill: #333"/>
    <polygon points="283.15 79 300.07 79 300.07 66.33 283.15 66.33 283.15 54.31 301.21 54.31 301.21 41.09 257.01 41.09 257.01 106.62 302.62 106.62 302.62 93.41 283.15 93.41 283.15 79" style="fill: #333"/>
    <path d="M223,41.09H190v65.53h39.08c11.51,0,23.16-2.74,23.16-12.57V57.89C252.23,43.2,240.73,41.09,223,41.09Zm3.12,49.11c.15,3.12-2.28,5.42-6.11,5.42h-3.83V52.11H220c3.83,0,6.26,2.29,6.11,5.41Z" style="fill: #333"/>
    <path d="M154.09,39.72C127.8,39.72,123,49.63,123,60V87.71C123,98.09,127.8,108,154.09,108s31.12-9.91,31.12-20.29V60C185.21,49.63,180.39,39.72,154.09,39.72Zm5,53c0,2.29-1,4.31-5,4.31s-5-2-5-4.31V55c0-2.29,1-4.31,5-4.31s5,2,5,4.31Z" style="fill: #333"/>
  </g>
</svg>
