<svg id="Layer_1" data-name="Layer 1" xmlns="http://www.w3.org/2000/svg" width="520" height="1000" viewBox="0 0 520 1000">
  <title>radial-grid-r</title>
  <path d="M190,220a173.44,173.44,0,1,1,13.67,67.73A173,173,0,0,1,190,220Z" style="fill: none;stroke: #373737;stroke-miterlimit: 10"/>
  <path d="M211.69,220a151.83,151.83,0,1,1,12,59.29A151.43,151.43,0,0,1,211.69,220Z" style="fill: none;stroke: #373737;stroke-miterlimit: 10"/>
  <path d="M233.38,220a130.26,130.26,0,1,1,10.27,50.84A129.63,129.63,0,0,1,233.38,220Z" style="fill: none;stroke: #373737;stroke-miterlimit: 10"/>
  <path d="M255.07,220A108.95,108.95,0,1,1,287,297,108.17,108.17,0,0,1,255.07,220Z" style="fill: none;stroke: #373737;stroke-miterlimit: 10"/>
  <path d="M276.76,220a87.23,87.23,0,1,1,25.55,61.69A86.71,86.71,0,0,1,276.76,220Z" style="fill: none;stroke: #373737;stroke-miterlimit: 10"/>
  <circle cx="364" cy="220" r="65.55" transform="translate(66.26 523.72) rotate(-76.72)" style="fill: none;stroke: #373737;stroke-miterlimit: 10"/>
  <path d="M190,460a173.44,173.44,0,1,1,13.67,67.73A173,173,0,0,1,190,460Z" style="fill: none;stroke: #373737;stroke-miterlimit: 10"/>
  <path d="M211.69,460a151.83,151.83,0,1,1,12,59.29A151.43,151.43,0,0,1,211.69,460Z" style="fill: none;stroke: #373737;stroke-miterlimit: 10"/>
  <path d="M233.38,460a130.26,130.26,0,1,1,10.27,50.84A129.63,129.63,0,0,1,233.38,460Z" style="fill: none;stroke: #373737;stroke-miterlimit: 10"/>
  <path d="M255.07,460A108.95,108.95,0,1,1,287,537,108.17,108.17,0,0,1,255.07,460Z" style="fill: none;stroke: #373737;stroke-miterlimit: 10"/>
  <path d="M276.76,460a87.23,87.23,0,1,1,25.55,61.69A86.71,86.71,0,0,1,276.76,460Z" style="fill: none;stroke: #373737;stroke-miterlimit: 10"/>
  <circle cx="364" cy="460" r="65.55" transform="translate(-167.32 708.58) rotate(-76.72)" style="fill: none;stroke: #373737;stroke-miterlimit: 10"/>
  <path d="M190,700a173.44,173.44,0,1,1,13.67,67.73A173,173,0,0,1,190,700Z" style="fill: none;stroke: #373737;stroke-miterlimit: 10"/>
  <path d="M211.69,700a151.83,151.83,0,1,1,12,59.29A151.43,151.43,0,0,1,211.69,700Z" style="fill: none;stroke: #373737;stroke-miterlimit: 10"/>
  <path d="M233.38,700a130.26,130.26,0,1,1,10.27,50.84A129.63,129.63,0,0,1,233.38,700Z" style="fill: none;stroke: #373737;stroke-miterlimit: 10"/>
  <path d="M255.07,700A108.95,108.95,0,1,1,287,777,108.17,108.17,0,0,1,255.07,700Z" style="fill: none;stroke: #373737;stroke-miterlimit: 10"/>
  <path d="M276.76,700a87.23,87.23,0,1,1,25.55,61.69A86.71,86.71,0,0,1,276.76,700Z" style="fill: none;stroke: #373737;stroke-miterlimit: 10"/>
  <circle cx="364" cy="700" r="65.55" transform="translate(-400.9 893.44) rotate(-76.72)" style="fill: none;stroke: #373737;stroke-miterlimit: 10"/>
  <path d="M190,940a173.44,173.44,0,1,1,13.67,67.73A173,173,0,0,1,190,940Z" style="fill: none;stroke: #373737;stroke-miterlimit: 10"/>
  <path d="M211.69,940a151.83,151.83,0,1,1,12,59.29A151.43,151.43,0,0,1,211.69,940Z" style="fill: none;stroke: #373737;stroke-miterlimit: 10"/>
  <path d="M233.38,940a130.26,130.26,0,1,1,10.27,50.84A129.63,129.63,0,0,1,233.38,940Z" style="fill: none;stroke: #373737;stroke-miterlimit: 10"/>
  <path d="M255.07,940A108.95,108.95,0,1,1,287,1017,108.17,108.17,0,0,1,255.07,940Z" style="fill: none;stroke: #373737;stroke-miterlimit: 10"/>
  <path d="M276.76,940a87.23,87.23,0,1,1,25.55,61.69A86.71,86.71,0,0,1,276.76,940Z" style="fill: none;stroke: #373737;stroke-miterlimit: 10"/>
  <circle cx="364" cy="940" r="65.55" transform="translate(-634.48 1078.3) rotate(-76.72)" style="fill: none;stroke: #373737;stroke-miterlimit: 10"/>
  <path d="M-18,100A174,174,0,0,1,316.33,32.27a174.2,174.2,0,0,1-92.6,228.06A173.94,173.94,0,0,1-18,100Z" style="fill: none;stroke: #373737;stroke-miterlimit: 10"/>
  <path d="M3.69,100A152.35,152.35,0,0,1,296.34,40.71a152.48,152.48,0,0,1-81,199.63A152.26,152.26,0,0,1,3.69,100Z" style="fill: none;stroke: #373737;stroke-miterlimit: 10"/>
  <path d="M25.38,100a130.58,130.58,0,0,1,223-92.36,130.51,130.51,0,0,1,0,184.72A130.59,130.59,0,0,1,25.38,100Z" style="fill: none;stroke: #373737;stroke-miterlimit: 10"/>
  <path d="M47.07,100a108.93,108.93,0,1,1,186,77,108.93,108.93,0,0,1-186-77Z" style="fill: none;stroke: #373737;stroke-miterlimit: 10"/>
  <path d="M68.76,100a87.23,87.23,0,1,1,25.55,61.69A86.71,86.71,0,0,1,68.76,100Z" style="fill: none;stroke: #373737;stroke-miterlimit: 10"/>
  <circle cx="156" cy="100" r="65.55" transform="translate(22.83 228.85) rotate(-76.72)" style="fill: none;stroke: #373737;stroke-miterlimit: 10"/>
  <path d="M-18,340a174,174,0,0,1,334.33-67.73A174,174,0,0,1-4.33,407.73,173,173,0,0,1-18,340Z" style="fill: none;stroke: #373737;stroke-miterlimit: 10"/>
  <path d="M3.69,340a152.35,152.35,0,0,1,292.65-59.29A152.35,152.35,0,0,1,15.66,399.29,151.43,151.43,0,0,1,3.69,340Z" style="fill: none;stroke: #373737;stroke-miterlimit: 10"/>
  <path d="M25.38,340a130.58,130.58,0,0,1,223-92.36A130.62,130.62,0,1,1,35.65,390.84,129.63,129.63,0,0,1,25.38,340Z" style="fill: none;stroke: #373737;stroke-miterlimit: 10"/>
  <path d="M47.07,340A108.95,108.95,0,1,1,79,417,108.17,108.17,0,0,1,47.07,340Z" style="fill: none;stroke: #373737;stroke-miterlimit: 10"/>
  <path d="M68.76,340a87.23,87.23,0,1,1,25.55,61.69A86.71,86.71,0,0,1,68.76,340Z" style="fill: none;stroke: #373737;stroke-miterlimit: 10"/>
  <circle cx="156" cy="340" r="65.55" transform="translate(-210.75 413.71) rotate(-76.72)" style="fill: none;stroke: #373737;stroke-miterlimit: 10"/>
  <path d="M-18,580a174,174,0,0,1,334.33-67.73A174,174,0,0,1-4.33,647.73,173,173,0,0,1-18,580Z" style="fill: none;stroke: #373737;stroke-miterlimit: 10"/>
  <path d="M3.69,580a152.35,152.35,0,0,1,292.65-59.29A152.35,152.35,0,0,1,15.66,639.29,151.43,151.43,0,0,1,3.69,580Z" style="fill: none;stroke: #373737;stroke-miterlimit: 10"/>
  <path d="M25.38,580a130.58,130.58,0,0,1,223-92.36A130.62,130.62,0,1,1,35.65,630.84,129.63,129.63,0,0,1,25.38,580Z" style="fill: none;stroke: #373737;stroke-miterlimit: 10"/>
  <path d="M47.07,580A108.95,108.95,0,1,1,79,657,108.17,108.17,0,0,1,47.07,580Z" style="fill: none;stroke: #373737;stroke-miterlimit: 10"/>
  <path d="M68.76,580a87.23,87.23,0,1,1,25.55,61.69A86.71,86.71,0,0,1,68.76,580Z" style="fill: none;stroke: #373737;stroke-miterlimit: 10"/>
  <circle cx="156" cy="580" r="65.55" transform="translate(-444.33 598.57) rotate(-76.72)" style="fill: none;stroke: #373737;stroke-miterlimit: 10"/>
  <path d="M-18,820a174,174,0,0,1,334.33-67.73A174,174,0,0,1-4.33,887.73,173,173,0,0,1-18,820Z" style="fill: none;stroke: #373737;stroke-miterlimit: 10"/>
  <path d="M3.69,820a152.35,152.35,0,0,1,292.65-59.29A152.35,152.35,0,0,1,15.66,879.29,151.43,151.43,0,0,1,3.69,820Z" style="fill: none;stroke: #373737;stroke-miterlimit: 10"/>
  <path d="M25.38,820a130.58,130.58,0,0,1,223-92.36A130.62,130.62,0,1,1,35.65,870.84,129.63,129.63,0,0,1,25.38,820Z" style="fill: none;stroke: #373737;stroke-miterlimit: 10"/>
  <path d="M47.07,820A108.95,108.95,0,1,1,79,897,108.17,108.17,0,0,1,47.07,820Z" style="fill: none;stroke: #373737;stroke-miterlimit: 10"/>
  <path d="M68.76,820a87.23,87.23,0,1,1,25.55,61.69A86.71,86.71,0,0,1,68.76,820Z" style="fill: none;stroke: #373737;stroke-miterlimit: 10"/>
  <circle cx="156" cy="820" r="65.55" transform="translate(-677.91 783.43) rotate(-76.72)" style="fill: none;stroke: #373737;stroke-miterlimit: 10"/>
  <path d="M-18,1060a174,174,0,0,1,334.33-67.73A174,174,0,0,1-4.33,1127.73,173,173,0,0,1-18,1060Z" style="fill: none;stroke: #373737;stroke-miterlimit: 10"/>
  <path d="M3.69,1060a152.35,152.35,0,0,1,292.65-59.29A152.35,152.35,0,0,1,15.66,1119.29,151.43,151.43,0,0,1,3.69,1060Z" style="fill: none;stroke: #373737;stroke-miterlimit: 10"/>
  <path d="M25.38,1060a130.58,130.58,0,0,1,223-92.36,130.62,130.62,0,1,1-212.71,143.2A129.63,129.63,0,0,1,25.38,1060Z" style="fill: none;stroke: #373737;stroke-miterlimit: 10"/>
  <path d="M47.07,1060A108.95,108.95,0,1,1,79,1137,108.17,108.17,0,0,1,47.07,1060Z" style="fill: none;stroke: #373737;stroke-miterlimit: 10"/>
  <path d="M68.76,1060a87.23,87.23,0,1,1,25.55,61.69A86.71,86.71,0,0,1,68.76,1060Z" style="fill: none;stroke: #373737;stroke-miterlimit: 10"/>
  <circle cx="156" cy="1060" r="65.55" transform="translate(-911.49 968.29) rotate(-76.72)" style="fill: none;stroke: #373737;stroke-miterlimit: 10"/>
</svg>
