<svg id="Layer_1" data-name="Layer 1" xmlns="http://www.w3.org/2000/svg" width="1000" height="520" viewBox="0 0 1000 520">
  <title>radial-grid</title>
  <path d="M140,329A174,174,0,0,1,72.27-5.33,174,174,0,0,1,207.73,315.33,173,173,0,0,1,140,329Z" style="fill: none;stroke: #373737;stroke-miterlimit: 10"/>
  <path d="M140,307.31A152.35,152.35,0,0,1,80.71,14.66,152.35,152.35,0,0,1,199.29,295.34,151.43,151.43,0,0,1,140,307.31Z" style="fill: none;stroke: #373737;stroke-miterlimit: 10"/>
  <path d="M140,285.62a130.58,130.58,0,0,1-92.36-223,130.62,130.62,0,1,1,143.2,212.71A129.63,129.63,0,0,1,140,285.62Z" style="fill: none;stroke: #373737;stroke-miterlimit: 10"/>
  <path d="M140,263.93A108.95,108.95,0,1,1,217,232,108.17,108.17,0,0,1,140,263.93Z" style="fill: none;stroke: #373737;stroke-miterlimit: 10"/>
  <path d="M140,242.24a87.23,87.23,0,1,1,61.69-25.55A86.71,86.71,0,0,1,140,242.24Z" style="fill: none;stroke: #373737;stroke-miterlimit: 10"/>
  <circle cx="140" cy="155" r="65.55" transform="translate(-43.02 255.64) rotate(-76.72)" style="fill: none;stroke: #373737;stroke-miterlimit: 10"/>
  <path d="M380,329A174,174,0,0,1,312.27-5.33,174,174,0,0,1,447.73,315.33,173,173,0,0,1,380,329Z" style="fill: none;stroke: #373737;stroke-miterlimit: 10"/>
  <path d="M380,307.31A152.35,152.35,0,0,1,320.71,14.66,152.35,152.35,0,0,1,439.29,295.34,151.43,151.43,0,0,1,380,307.31Z" style="fill: none;stroke: #373737;stroke-miterlimit: 10"/>
  <path d="M380,285.62a130.58,130.58,0,0,1-92.36-223,130.62,130.62,0,1,1,143.2,212.71A129.63,129.63,0,0,1,380,285.62Z" style="fill: none;stroke: #373737;stroke-miterlimit: 10"/>
  <path d="M380,263.93A108.95,108.95,0,1,1,457,232,108.17,108.17,0,0,1,380,263.93Z" style="fill: none;stroke: #373737;stroke-miterlimit: 10"/>
  <path d="M380,242.24a87.23,87.23,0,1,1,61.69-25.55A86.71,86.71,0,0,1,380,242.24Z" style="fill: none;stroke: #373737;stroke-miterlimit: 10"/>
  <circle cx="380" cy="155" r="65.55" transform="translate(141.84 489.22) rotate(-76.72)" style="fill: none;stroke: #373737;stroke-miterlimit: 10"/>
  <path d="M620,329A174,174,0,0,1,552.27-5.33,174,174,0,0,1,687.73,315.33,173,173,0,0,1,620,329Z" style="fill: none;stroke: #373737;stroke-miterlimit: 10"/>
  <path d="M620,307.31A152.35,152.35,0,0,1,560.71,14.66,152.35,152.35,0,0,1,679.29,295.34,151.43,151.43,0,0,1,620,307.31Z" style="fill: none;stroke: #373737;stroke-miterlimit: 10"/>
  <path d="M620,285.62a130.58,130.58,0,0,1-92.36-223,130.62,130.62,0,1,1,143.2,212.71A129.63,129.63,0,0,1,620,285.62Z" style="fill: none;stroke: #373737;stroke-miterlimit: 10"/>
  <path d="M620,263.93A108.95,108.95,0,1,1,697,232,108.17,108.17,0,0,1,620,263.93Z" style="fill: none;stroke: #373737;stroke-miterlimit: 10"/>
  <path d="M620,242.24a87.23,87.23,0,1,1,61.69-25.55A86.71,86.71,0,0,1,620,242.24Z" style="fill: none;stroke: #373737;stroke-miterlimit: 10"/>
  <circle cx="620" cy="155" r="65.55" transform="translate(326.7 722.8) rotate(-76.72)" style="fill: none;stroke: #373737;stroke-miterlimit: 10"/>
  <path d="M860,329A174,174,0,0,1,792.27-5.33,174,174,0,0,1,927.73,315.33,173,173,0,0,1,860,329Z" style="fill: none;stroke: #373737;stroke-miterlimit: 10"/>
  <path d="M860,307.31A152.35,152.35,0,0,1,800.71,14.66,152.35,152.35,0,0,1,919.29,295.34,151.43,151.43,0,0,1,860,307.31Z" style="fill: none;stroke: #373737;stroke-miterlimit: 10"/>
  <path d="M860,285.62a130.58,130.58,0,0,1-92.36-223,130.62,130.62,0,1,1,143.2,212.71A129.63,129.63,0,0,1,860,285.62Z" style="fill: none;stroke: #373737;stroke-miterlimit: 10"/>
  <path d="M860,263.93A108.95,108.95,0,1,1,937,232,108.17,108.17,0,0,1,860,263.93Z" style="fill: none;stroke: #373737;stroke-miterlimit: 10"/>
  <path d="M860,242.24a87.23,87.23,0,1,1,61.69-25.55A86.71,86.71,0,0,1,860,242.24Z" style="fill: none;stroke: #373737;stroke-miterlimit: 10"/>
  <circle cx="860" cy="155" r="65.55" transform="translate(511.56 956.38) rotate(-76.72)" style="fill: none;stroke: #373737;stroke-miterlimit: 10"/>
  <path d="M20,537A174.19,174.19,0,0,1-140.33,430.73a174.62,174.62,0,0,1,0-135.46A173.53,173.53,0,0,1-103,240,173.44,173.44,0,0,1,20,189,174.19,174.19,0,0,1,180.33,295.27a174.62,174.62,0,0,1,0,135.46A173.53,173.53,0,0,1,143,486,173.44,173.44,0,0,1,20,537Z" style="fill: none;stroke: #373737;stroke-miterlimit: 10"/>
  <path d="M20,515.31A151.83,151.83,0,0,1-87.7,470.7a151.83,151.83,0,0,1-32.64-48.41,152.82,152.82,0,0,1,0-118.58A151.83,151.83,0,0,1-87.7,255.3,151.83,151.83,0,0,1,20,210.69a152.48,152.48,0,0,1,140.34,93,152.82,152.82,0,0,1,0,118.58A151.83,151.83,0,0,1,127.7,470.7,151.83,151.83,0,0,1,20,515.31Z" style="fill: none;stroke: #373737;stroke-miterlimit: 10"/>
  <path d="M20,493.62a130.26,130.26,0,0,1-92.36-38.26,129.84,129.84,0,0,1-28-41.52,131,131,0,0,1,0-101.68,129.84,129.84,0,0,1,28-41.52A130.26,130.26,0,0,1,20,232.38a130.26,130.26,0,0,1,92.36,38.26,129.84,129.84,0,0,1,28,41.52,131,131,0,0,1,0,101.68,129.84,129.84,0,0,1-28,41.52A130.26,130.26,0,0,1,20,493.62Z" style="fill: none;stroke: #373737;stroke-miterlimit: 10"/>
  <path d="M20,471.93A108.17,108.17,0,0,1-57,440a108.91,108.91,0,0,1,0-154,108.17,108.17,0,0,1,77-31.91A108.17,108.17,0,0,1,97,286a108.91,108.91,0,0,1,0,154A108.17,108.17,0,0,1,20,471.93Z" style="fill: none;stroke: #373737;stroke-miterlimit: 10"/>
  <path d="M20,450.24a86.71,86.71,0,0,1-61.69-25.55,87.25,87.25,0,0,1,0-123.38A86.71,86.71,0,0,1,20,275.76a86.71,86.71,0,0,1,61.69,25.55,87.25,87.25,0,0,1,0,123.38A86.71,86.71,0,0,1,20,450.24Z" style="fill: none;stroke: #373737;stroke-miterlimit: 10"/>
  <circle cx="20" cy="363" r="65.55" transform="translate(-337.88 299.06) rotate(-76.72)" style="fill: none;stroke: #373737;stroke-miterlimit: 10"/>
  <path d="M260,537a173.44,173.44,0,1,1,67.73-13.67A173,173,0,0,1,260,537Z" style="fill: none;stroke: #373737;stroke-miterlimit: 10"/>
  <path d="M260,515.31a151.83,151.83,0,1,1,59.29-12A151.43,151.43,0,0,1,260,515.31Z" style="fill: none;stroke: #373737;stroke-miterlimit: 10"/>
  <path d="M260,493.62a130.26,130.26,0,1,1,50.84-10.27A129.63,129.63,0,0,1,260,493.62Z" style="fill: none;stroke: #373737;stroke-miterlimit: 10"/>
  <path d="M260,471.93A108.95,108.95,0,1,1,337,440,108.17,108.17,0,0,1,260,471.93Z" style="fill: none;stroke: #373737;stroke-miterlimit: 10"/>
  <path d="M260,450.24a87.23,87.23,0,1,1,61.69-25.55A86.71,86.71,0,0,1,260,450.24Z" style="fill: none;stroke: #373737;stroke-miterlimit: 10"/>
  <circle cx="260" cy="363" r="65.55" transform="translate(-153.02 532.64) rotate(-76.72)" style="fill: none;stroke: #373737;stroke-miterlimit: 10"/>
  <path d="M500,537a173.44,173.44,0,1,1,67.73-13.67A173,173,0,0,1,500,537Z" style="fill: none;stroke: #373737;stroke-miterlimit: 10"/>
  <path d="M500,515.31a151.83,151.83,0,1,1,59.29-12A151.43,151.43,0,0,1,500,515.31Z" style="fill: none;stroke: #373737;stroke-miterlimit: 10"/>
  <path d="M500,493.62a130.26,130.26,0,1,1,50.84-10.27A129.63,129.63,0,0,1,500,493.62Z" style="fill: none;stroke: #373737;stroke-miterlimit: 10"/>
  <path d="M500,471.93A108.95,108.95,0,1,1,577,440,108.17,108.17,0,0,1,500,471.93Z" style="fill: none;stroke: #373737;stroke-miterlimit: 10"/>
  <path d="M500,450.24a87.23,87.23,0,1,1,61.69-25.55A86.71,86.71,0,0,1,500,450.24Z" style="fill: none;stroke: #373737;stroke-miterlimit: 10"/>
  <circle cx="500" cy="363" r="65.55" transform="translate(31.83 766.22) rotate(-76.72)" style="fill: none;stroke: #373737;stroke-miterlimit: 10"/>
  <path d="M740,537a173.44,173.44,0,1,1,67.73-13.67A173,173,0,0,1,740,537Z" style="fill: none;stroke: #373737;stroke-miterlimit: 10"/>
  <path d="M740,515.31a151.83,151.83,0,1,1,59.29-12A151.43,151.43,0,0,1,740,515.31Z" style="fill: none;stroke: #373737;stroke-miterlimit: 10"/>
  <path d="M740,493.62a130.26,130.26,0,1,1,50.84-10.27A129.63,129.63,0,0,1,740,493.62Z" style="fill: none;stroke: #373737;stroke-miterlimit: 10"/>
  <path d="M740,471.93A108.95,108.95,0,1,1,817,440,108.17,108.17,0,0,1,740,471.93Z" style="fill: none;stroke: #373737;stroke-miterlimit: 10"/>
  <path d="M740,450.24a87.23,87.23,0,1,1,61.69-25.55A86.71,86.71,0,0,1,740,450.24Z" style="fill: none;stroke: #373737;stroke-miterlimit: 10"/>
  <circle cx="740" cy="363" r="65.55" transform="translate(216.69 999.8) rotate(-76.72)" style="fill: none;stroke: #373737;stroke-miterlimit: 10"/>
  <path d="M980,537a173.44,173.44,0,1,1,67.73-13.67A173,173,0,0,1,980,537Z" style="fill: none;stroke: #373737;stroke-miterlimit: 10"/>
  <path d="M980,515.31a151.83,151.83,0,1,1,59.29-12A151.43,151.43,0,0,1,980,515.31Z" style="fill: none;stroke: #373737;stroke-miterlimit: 10"/>
  <path d="M980,493.62a130.26,130.26,0,1,1,50.84-10.27A129.63,129.63,0,0,1,980,493.62Z" style="fill: none;stroke: #373737;stroke-miterlimit: 10"/>
  <path d="M980,471.93A108.95,108.95,0,1,1,1057,440,108.17,108.17,0,0,1,980,471.93Z" style="fill: none;stroke: #373737;stroke-miterlimit: 10"/>
  <path d="M980,450.24a87.23,87.23,0,1,1,61.69-25.55A86.71,86.71,0,0,1,980,450.24Z" style="fill: none;stroke: #373737;stroke-miterlimit: 10"/>
  <circle cx="980" cy="363" r="65.55" transform="translate(401.55 1233.38) rotate(-76.72)" style="fill: none;stroke: #373737;stroke-miterlimit: 10"/>
</svg>
