<svg style="opacity:1.0;" id="Layer_1" data-name="Layer 1" xmlns="http://www.w3.org/2000/svg" xmlns:xlink="http://www.w3.org/1999/xlink" width="500" height="430" viewBox="0 0 500 430">
  <defs>
    <radialGradient id="radial-gradient" cx="154.63" cy="161.11" r="77.56" gradientTransform="translate(2.81 -0.63)" gradientUnits="userSpaceOnUse">
      <stop offset="0" stop-color="#0071bc"/>
      <stop offset="0.32" stop-color="#0b62ae" stop-opacity="0.7"/>
      <stop offset="1" stop-color="#24408f" stop-opacity="0"/>
    </radialGradient>
    <radialGradient id="radial-gradient-2" cx="340.5" cy="269.75" r="77.72" gradientTransform="translate(3.13 -0.08)" gradientUnits="userSpaceOnUse">
      <stop offset="0" stop-color="#ed1d25"/>
      <stop offset="0.26" stop-color="#bd253e" stop-opacity="0.76"/>
      <stop offset="0.84" stop-color="#453a7e" stop-opacity="0.16"/>
      <stop offset="1" stop-color="#24408f" stop-opacity="0"/>
    </radialGradient>
  </defs>
  <title>smart-tech</title>
  <g>
    <path d="M342.47,424.5A155,155,0,1,1,403,412.28,154.38,154.38,0,0,1,342.47,424.5Z" style="fill: none;stroke: #ed1d25;stroke-miterlimit: 10"/>
    <path d="M342.47,405.12a135.62,135.62,0,1,1,53-10.69A135.35,135.35,0,0,1,342.47,405.12Z" style="fill: none;stroke: #ed1d25;stroke-miterlimit: 10"/>
    <path d="M342.47,385.74a116.35,116.35,0,1,1,45.42-9.17A115.9,115.9,0,0,1,342.47,385.74Z" style="fill: none;stroke: #ed1d25;stroke-miterlimit: 10"/>
    <path d="M342.47,366.37a97.32,97.32,0,1,1,68.81-28.51A96.69,96.69,0,0,1,342.47,366.37Z" style="fill: none;stroke: #ed1d25;stroke-miterlimit: 10"/>
    <path d="M342.47,347a77.93,77.93,0,1,1,55.11-22.83A77.43,77.43,0,0,1,342.47,347Z" style="fill: none;stroke: #ed1d25;stroke-miterlimit: 10"/>
    <circle cx="342.47" cy="269.05" r="58.56" transform="translate(1.93 540.54) rotate(-76.72)" style="fill: none;stroke: #ed1d25;stroke-miterlimit: 10"/>
  </g>
  <g>
    <path d="M157.53,316.4A155.41,155.41,0,0,1,47.61,51,155.45,155.45,0,1,1,218,304.18,154.38,154.38,0,0,1,157.53,316.4Z" style="fill: none;stroke: #24408f;stroke-miterlimit: 10"/>
    <path d="M157.53,297a135.62,135.62,0,1,1,53-10.69A135.27,135.27,0,0,1,157.53,297Z" style="fill: none;stroke: #24408f;stroke-miterlimit: 10"/>
    <path d="M157.53,277.64A116.35,116.35,0,1,1,203,268.47,115.89,115.89,0,0,1,157.53,277.64Z" style="fill: none;stroke: #24408f;stroke-miterlimit: 10"/>
    <path d="M157.53,258.27a97.32,97.32,0,1,1,68.82-28.51A96.69,96.69,0,0,1,157.53,258.27Z" style="fill: none;stroke: #24408f;stroke-miterlimit: 10"/>
    <path d="M157.53,238.89a77.95,77.95,0,1,1,55.11-22.83A77.44,77.44,0,0,1,157.53,238.89Z" style="fill: none;stroke: #24408f;stroke-miterlimit: 10"/>
    <circle cx="157.53" cy="160.95" r="58.56" transform="matrix(0.23, -0.97, 0.97, 0.23, -35.3, 277.29)" style="fill: none;stroke: #24408f;stroke-miterlimit: 10"/>
  </g>
  <circle cx="157.32" cy="160.34" r="77.5" style="fill: url(#radial-gradient)"/>
  <circle cx="342.66" cy="268.9" r="77.5" style="fill: url(#radial-gradient-2)"/>
  <g>
    <g>
      <path d="M178.58,157l-20.25-18.41a1.14,1.14,0,0,0-1.56,0L136.47,157a1.2,1.2,0,0,0-.31,1.3,1.18,1.18,0,0,0,1.09.76h3.46l16-14.42a1.17,1.17,0,0,1,1.58,0l16,14.42h3.42a1.17,1.17,0,0,0,1.09-.76,1.2,1.2,0,0,0-.31-1.3Z" style="fill: #fff"/>
      <path d="M161.06,159.87a3.51,3.51,0,1,0-7,0v1.74h7v-1.74Z" style="fill: #fff"/>
      <path d="M151.63,173.78h11.84v-9.52H151.63Zm5.92-7.6a1.84,1.84,0,0,1,1.83,1.84,1.87,1.87,0,0,1-.51,1.28v1.75a1.32,1.32,0,1,1-2.63,0V169.3a1.84,1.84,0,0,1,1.31-3.12Z" style="fill: #fff"/>
      <path d="M142.16,160.91V180a1.17,1.17,0,0,0,1.17,1.18h28.43a1.17,1.17,0,0,0,1.17-1.18V160.91l-15.38-13.8-15.39,13.8Zm21.53-1v1.74h1.1a1.32,1.32,0,0,1,1.31,1.32v12.18a1.32,1.32,0,0,1-1.31,1.32H150.31a1.32,1.32,0,0,1-1.31-1.32V162.93a1.32,1.32,0,0,1,1.31-1.32h1.1v-1.74a6.14,6.14,0,1,1,12.28,0Z" style="fill: #fff"/>
    </g>
    <g>
      <path d="M353.49,246.4H332.21a3.65,3.65,0,0,0-3.66,3.65v30h28.59v-30A3.64,3.64,0,0,0,353.49,246.4Z" style="fill: #fff"/>
      <path d="M328.55,288.32a3.65,3.65,0,0,0,3.66,3.64h21.28a3.64,3.64,0,0,0,3.65-3.64v-6.4H328.55ZM341.31,285a2.17,2.17,0,0,1,3.71,1.54,2.17,2.17,0,0,1-3.71,1.53,2.15,2.15,0,0,1-.64-1.53A2.17,2.17,0,0,1,341.31,285Z" style="fill: #fff"/>
    </g>
    <g>
      <rect x="313.62" y="253.48" width="1.35" height="3.35" transform="translate(-58.04 414.05) rotate(-62.18)" style="fill: #fff"/>
      <path d="M306.48,251.79l-6-3.18.63-1.19,6,3.18Zm-12-6.35-6-3.18.62-1.19,6,3.18Zm-12-6.35-6-3.18.63-1.19,6,3.18Zm-12-6.35-6-3.18.63-1.19,6,3.17Zm-12-6.35-6-3.18.63-1.19,6,3.17Zm-12-6.35-6-3.18.62-1.19,6,3.17Zm-12-6.36-6-3.17.63-1.19,6,3.17Zm-12-6.35-6-3.17.63-1.2,6,3.18Zm-12-6.35-6-3.17.62-1.2,6,3.18Zm-12-6.35-6-3.17.63-1.2,6,3.18Z" style="fill: #fff"/>
      <polygon points="186.05 188.28 183.09 186.72 183.72 185.53 186.68 187.09 186.05 188.28" style="fill: #fff"/>
    </g>
  </g>
</svg>
